<?xml version="1.0" encoding="UTF-8" standalone="no"?>
<!DOCTYPE svg PUBLIC "-//W3C//DTD SVG 1.1//EN" "http://www.w3.org/Graphics/SVG/1.1/DTD/svg11.dtd">
<svg width="100%" height="100%" viewBox="0 0 160 160" version="1.1" xmlns="http://www.w3.org/2000/svg" xmlns:xlink="http://www.w3.org/1999/xlink" xml:space="preserve" xmlns:serif="http://www.serif.com/" style="fill-rule:evenodd;clip-rule:evenodd;stroke-linejoin:round;stroke-miterlimit:2;">
    <g transform="matrix(1,0,0,1,42.5,80)">
        <path d="M0,-62.5L27.096,-62.5L37.545,-24.471L47.92,-62.5L75,-62.5L75,0L58.126,0L58.126,-47.664L45.125,0L29.852,0L16.874,-47.664L16.874,0L0,0L0,-62.5Z" style="fill:rgb(162,255,0);fill-rule:nonzero;"/>
    </g>
    <g transform="matrix(1,0,0,1,117.5,80)">
        <path d="M0,62.5L-27.096,62.5L-37.545,24.471L-47.92,62.5L-75,62.5L-75,0L-58.126,0L-58.126,47.664L-45.125,0L-29.852,0L-16.874,47.664L-16.874,0L0,0L0,62.5Z" style="fill:rgb(221,221,221);fill-rule:nonzero;"/>
    </g>
</svg>
